PathFileType	4	(X/Y/Z)	C:\Users\chris\Documents\GitHub\baseballds\vids\pitch1_Sports2D\pitch1_Sports2D_m_person00.trc
DataRate	CameraRate	NumFrames	NumMarkers	Units	OrigDataRate	OrigDataStartFrame	OrigNumFrames
30	30	10	22	m	30	96	154
Frame#	Time	Hip			RHip			RKnee			RAnkle			RBigToe			RSmallToe			RHeel			LHip			LKnee			LAnkle			LBigToe			LSmallToe			LHeel			Neck			Head			Nose			RShoulder			RElbow			RWrist			LShoulder			LElbow			LWrist		
		X1	Y1	Z1	X2	Y2	Z2	X3	Y3	Z3	X4	Y4	Z4	X5	Y5	Z5	X6	Y6	Z6	X7	Y7	Z7	X8	Y8	Z8	X9	Y9	Z9	X10	Y10	Z10	X11	Y11	Z11	X12	Y12	Z12	X13	Y13	Z13	X14	Y14	Z14	X15	Y15	Z15	X16	Y16	Z16	X17	Y17	Z17	X18	Y18	Z18	X19	Y19	Z19	X20	Y20	Z20	X21	Y21	Z21	X22	Y22	Z22
96	3.2	1.7020469629512152	1.039365837956533	0.0	1.6049036894332955	0.9836114172275453	0.0	1.6221422621339725	0.5148147653060906	0.0	1.6547994633149439	0.13615586727336992	0.0	1.675966396570705	-0.00859264542184377	0.0	1.6299884121977364	-0.014894330370900625	0.0	1.6525972818255117	0.09150595785377844	0.0	1.8288004323881135	1.021349797895965	0.0	1.5818688832176506	1.1723754248239049	0.0	1.4964671503628812	0.7426749025346323	0.0	1.3239937522094467	0.7572044415736658	0.0	1.4056027667354363	0.6974708279491894	0.0	1.4800703962995232	0.6505766174992188	0.0	1.626155300707123	1.540758102305723	0.0	1.6454456300164124	1.822169130583818	0.0	1.659085332294844	1.6565145975777427	0.0	1.4759393118992972	1.4662138796754374	0.0	1.3113770683273183	1.285672391801476	0.0	1.4161725462923145	1.4896111866059372	0.0	1.7839950900189556	1.5072870606349338	0.0	1.8023814460638268	1.2580729418320689	0.0	1.6309828736717356	1.4868596297315233	0.0
97	3.2333333333333334	1.7071840987227669	1.0195468857848737	0.0	1.6074209444614374	0.9704149324327472	0.0	1.6218327175660825	0.51868628841195	0.0	1.6514422241272615	0.13311131793692746	0.0	1.673707716142911	-0.008556775688318906	0.0	1.6245294896883256	-0.016782422050660297	0.0	1.6560438794310193	0.08641405483562999	0.0	1.8241003673733014	1.0164372765703886	0.0	1.5644196643034767	1.2623623102425396	0.0	1.4785287066202113	0.8260945020705631	0.0	1.301429449418911	0.853620820674367	0.0	1.3614601833355442	0.7982516226119711	0.0	1.4604775578580929	0.7181149569713627	0.0	1.6257509661155396	1.543121821928842	0.0	1.6490671470836031	1.8124397503995302	0.0	1.6589496669360406	1.6499794933763687	0.0	1.4787891400165303	1.4709276313991815	0.0	1.3091231980896372	1.3014827856291535	0.0	1.4107416783278115	1.5088620276832292	0.0	1.7857440235328228	1.5090413844269415	0.0	1.806573908761589	1.2693279774880346	0.0	1.6320184577238872	1.5077807575979816	0.0
98	3.2666666666666666	1.7124684190741664	1.0055660323542348	0.0	1.6141733857204092	0.9630474711127166	0.0	1.6204178730064802	0.5171004992150636	0.0	1.648651212699426	0.12853130632944415	0.0	1.6681844766070315	-0.012700723458080003	0.0	1.6195276785888175	-0.02049829653046013	0.0	1.6607256865623008	0.0787385102806526	0.0	1.8202785349745798	1.018841374194265	0.0	1.5558704221553286	1.3243327762688542	0.0	1.4663451960229203	0.893383751963966	0.0	1.2874161115325764	0.9338694294618336	0.0	1.3258990903894288	0.8876995345765092	0.0	1.4430951619021026	0.7795840443414925	0.0	1.6256422081032422	1.5404853379111427	0.0	1.6471138413493183	1.7973257867229617	0.0	1.6548255002166699	1.6414661917119655	0.0	1.4803528286028103	1.468054610964552	0.0	1.3084183486695866	1.3109140605858163	0.0	1.4075756695556756	1.5220783490645704	0.0	1.7875443963151167	1.5074949716273671	0.0	1.8131298995157383	1.2785210168036822	0.0	1.6361710444295807	1.5212939292645802	0.0
99	3.3	1.7185621196254657	1.0000273042736136	0.0	1.6237224837781943	0.9617172823515355	0.0	1.6205285292239668	0.5125485846380811	0.0	1.6483359168931104	0.1262985270911913	0.0	1.6629742966962466	-0.019285201886783662	0.0	1.6183106059006858	-0.024777325746332676	0.0	1.664603070745425	0.07337697213126763	0.0	1.8213595024682585	1.0227909384044367	0.0	1.5518868636663035	1.3508525395989173	0.0	1.4586706498900504	0.9290275038435067	0.0	1.2736016875451097	0.979741299375972	0.0	1.3013769281271794	0.9409190309778449	0.0	1.430765560116286	0.8132694933040041	0.0	1.6260908996437295	1.5349364871148776	0.0	1.6424517171679638	1.7842939676994711	0.0	1.6491052484071822	1.6352842608231617	0.0	1.4810740633229593	1.4640245703306158	0.0	1.3086454030529162	1.3171546208022393	0.0	1.4095539601819285	1.5291787320585528	0.0	1.78792490796186	1.5067247768124707	0.0	1.8151966256874241	1.2884118810912761	0.0	1.6419594320715352	1.5278409248480953	0.0
100	3.3333333333333335	1.7257032519084596	1.0015527643088673	0.0	1.6314626832509067	0.9643549355222631	0.0	1.6220361827880112	0.5079243186980996	0.0	1.6494247887068152	0.1279264955045585	0.0	1.6615020587293716	-0.024287956384790255	0.0	1.6187529399309424	-0.028025701465181616	0.0	1.6658613608342538	0.0744224968457987	0.0	1.8282715236695462	1.02463807324604	0.0	1.550512068238669	1.3531167040137437	0.0	1.4583196890705095	0.9335504791471739	0.0	1.2645757790487693	0.9821384382743132	0.0	1.2906751214298187	0.9447339218475165	0.0	1.4319224319881318	0.8185841722728577	0.0	1.629298021436996	1.5322575345739924	0.0	1.6438904855471557	1.782499185957842	0.0	1.6522060621204744	1.634973620525096	0.0	1.4839278586491913	1.4665618980887087	0.0	1.3118896654228658	1.3200305524676392	0.0	1.4137977782497098	1.5307569939667198	0.0	1.788730972394596	1.510414166055228	0.0	1.811166957803905	1.2994654940852528	0.0	1.6454175567212845	1.5302518122066113	0.0
101	3.3666666666666667	1.734246909860882	1.0034611223063399	0.0	1.6360607695771063	0.9649775011610384	0.0	1.6246803985711469	0.5036410206327877	0.0	1.6495235300708748	0.1288868828570575	0.0	1.662984464672795	-0.0265997099655935	0.0	1.6169380778597289	-0.030263574246038056	0.0	1.662913262855347	0.07936473632135176	0.0	1.8389776335329238	1.021596935132776	0.0	1.5489037837446527	1.3412318914621053	0.0	1.4666811228050254	0.9103340263033651	0.0	1.2659199339256162	0.9444549339369396	0.0	1.2951252850197783	0.9048311538925189	0.0	1.4501579343064173	0.8041723615452676	0.0	1.6351305120466297	1.5335605262161505	0.0	1.6539910287655846	1.7883305066413722	0.0	1.6658527526979645	1.636237832447476	0.0	1.489782345758897	1.472982128525948	0.0	1.3202010481437827	1.3150865119357904	0.0	1.4164181240218991	1.527745584575284	0.0	1.7931343915245073	1.5143755865123956	0.0	1.807184971727955	1.3070016064027938	0.0	1.6442924267184453	1.5277789534791741	0.0
102	3.4	1.7444581788650637	1.0003038688223305	0.0	1.6417655427273856	0.9590831935275478	0.0	1.6288696268983245	0.49806576474029707	0.0	1.648066029979399	0.12513245894593747	0.0	1.66226344475997	-0.027363519434616353	0.0	1.6117667854504536	-0.031249727841682822	0.0	1.6569612372959313	0.08087644186827343	0.0	1.851051812431072	1.01266372527428	0.0	1.542891233153486	1.3121893269364022	0.0	1.4825842341666566	0.8610978084183761	0.0	1.2780314607505339	0.8732531993242348	0.0	1.3174193498973183	0.8323448090606482	0.0	1.481408108619948	0.7728436188240418	0.0	1.6393741475037693	1.533207487499484	0.0	1.6644021059348726	1.7910221476075787	0.0	1.6786100471077647	1.6325390218496538	0.0	1.494783092740153	1.4737157323486383	0.0	1.3320007743114	1.2991811648301763	0.0	1.4193001618579002	1.5162032418030822	0.0	1.7989708477130275	1.5129304612356407	0.0	1.8092969805897594	1.306291550393358	0.0	1.6388158815377554	1.5190098619535812	0.0
103	3.433333333333333	1.75352785395645	0.9972327691878927	0.0	1.6499170390166797	0.9526913006399248	0.0	1.6328143937835715	0.4912832702157098	0.0	1.6465521170233208	0.11987629081269713	0.0	1.6552642903575125	-0.026323104719819888	0.0	1.6053910107375136	-0.029045269201354303	0.0	1.6527156784776793	0.07624670165777654	0.0	1.862282805855699	1.0021659936359815	0.0	1.531972312187124	1.257424170025379	0.0	1.5013166795424802	0.7920284515374673	0.0	1.2935166660543211	0.7755643146461147	0.0	1.3528436496509912	0.7359212203671225	0.0	1.5156038158581309	0.7241705614544182	0.0	1.6402627537858314	1.5268164593410363	0.0	1.6689304298780419	1.7897484362453202	0.0	1.6842448767133218	1.6248013702742978	0.0	1.4973201745714613	1.4655949235148364	0.0	1.3460325377569191	1.2740694209315506	0.0	1.425855389267917	1.4894720719565437	0.0	1.8010555827534622	1.5071241684902479	0.0	1.8203862131120991	1.2964753927945472	0.0	1.631336881097464	1.502808644698585	0.0
104	3.466666666666667	1.7586959520463443	1.002262530199823	0.0	1.6564299219867404	0.9542401694469493	0.0	1.6346751064995753	0.4862695671732877	0.0	1.646002573103305	0.11837500240459764	0.0	1.6441650513103065	-0.024000738708566238	0.0	1.6007676781710263	-0.024119565533310298	0.0	1.653693194043262	0.07013253309238751	0.0	1.8726441018295004	0.9970144913552377	0.0	1.5217633797364778	1.1740947413740268	0.0	1.5183354044946047	0.7105749631181391	0.0	1.3096112624542149	0.6595276744430552	0.0	1.3885705840545206	0.6225052236052262	0.0	1.5452189194981756	0.6564433628871975	0.0	1.6407099682907011	1.5165877822548839	0.0	1.6688033272431155	1.7888811713832156	0.0	1.6877713890650567	1.6168725951413603	0.0	1.500653594799152	1.452885311170696	0.0	1.3634075101274366	1.242524803601862	0.0	1.4344970107914081	1.4472650597099792	0.0	1.8002868923095434	1.5012292121009785	0.0	1.8431995455288535	1.2795413636619946	0.0	1.6286804418571348	1.47352500851541	0.0
105	3.5	1.762727044795217	1.0114664232810229	0.0	1.6602779136623373	0.9605302421883873	0.0	1.636681591981523	0.4865174669569021	0.0	1.6465579057127724	0.12009037309496089	0.0	1.634357424248265	-0.0237110242973396	0.0	1.5979438268133654	-0.02040632681533694	0.0	1.6596701189164873	0.06700971776983378	0.0	1.8849786251686387	0.9984382774755328	0.0	1.522618233452921	1.0662237349537547	0.0	1.535882012581876	0.6175609604699135	0.0	1.3366932730321195	0.529965681009233	0.0	1.42104695821307	0.4975873857548147	0.0	1.5715578722521353	0.5649336271687735	0.0	1.6425654112043566	1.5057052256983694	0.0	1.6674971965684537	1.786212822489194	0.0	1.69370174424928	1.6090854765152418	0.0	1.5048476876735526	1.4381615672223556	0.0	1.3829494329525474	1.2033202758412311	0.0	1.4430860010628361	1.3955213718003205	0.0	1.8018278618964385	1.4952904793176542	0.0	1.8789727196436787	1.2597188409640783	0.0	1.6411336332939555	1.425459804191916	0.0
